HIERARCHY
ROOT Hips
{
  OFFSET 5.80788e-005 67.184 3.4734
  CHANNELS 6 Xposition Yposition Zposition Zrotation Xrotation Yrotation
  JOINT Chest
  {
    OFFSET 0 8.7983 -4.7612
    CHANNELS 3 Zrotation Xrotation Yrotation
    JOINT Chest2
    {
      OFFSET 0 8.0291 0.4195
      CHANNELS 3 Zrotation Xrotation Yrotation
      JOINT Chest3
      {
        OFFSET 0 9.9351 -2.2114
        CHANNELS 3 Zrotation Xrotation Yrotation
        JOINT Neck
        {
          OFFSET 0 22.3885 -0.4656
          CHANNELS 3 Zrotation Xrotation Yrotation
          JOINT Head
          {
            OFFSET -0.0001 12.643 3.4389
            CHANNELS 3 Zrotation Xrotation Yrotation
            End Site
            {
              OFFSET 0.0001 17.6655 0.5274
            }
          }
        }
        JOINT LeftCollar
        {
          OFFSET 2.2603 21.606 7.4023
          CHANNELS 3 Zrotation Xrotation Yrotation
          JOINT LeftShoulder
          {
            OFFSET 13.5163 -1.1332 -5.0146
            CHANNELS 3 Zrotation Xrotation Yrotation
            JOINT LeftElbow
            {
              OFFSET -0.0995 -28.05 -0.2431
              CHANNELS 3 Zrotation Xrotation Yrotation
              JOINT LeftWrist
              {
                OFFSET 0.0679 -23.3996 -0.1402
                CHANNELS 3 Zrotation Xrotation Yrotation
                JOINT LeftFinger1
                {
                  OFFSET 0.7932 -9.069 2.5189
                  CHANNELS 3 Zrotation Xrotation Yrotation
                  JOINT LeftFinger11
                  {
                    OFFSET -0.8272 -3.3923 0.5977
                    CHANNELS 3 Zrotation Xrotation Yrotation
                    JOINT LeftFinger12
                    {
                      OFFSET -0.5649 -2.3158 0.4082
                      CHANNELS 3 Zrotation Xrotation Yrotation
                      End Site
                      {
                        OFFSET -0.4919 -1.6479 0.2673
                      }
                    }
                  }
                }
                JOINT LeftFinger2
                {
                  OFFSET 0.9159 -9.2044 0.2193
                  CHANNELS 3 Zrotation Xrotation Yrotation
                  JOINT LeftFinger21
                  {
                    OFFSET 0.0117 -4.1944 -0.0248
                    CHANNELS 3 Zrotation Xrotation Yrotation
                    JOINT LeftFinger22
                    {
                      OFFSET 0.0071 -2.3249 -0.0142
                      CHANNELS 3 Zrotation Xrotation Yrotation
                      End Site
                      {
                        OFFSET -0.1475 -2.0882 0.0028
                      }
                    }
                  }
                }
                JOINT LeftFinger3
                {
                  OFFSET 0.6113 -8.7231 -2.0637
                  CHANNELS 3 Zrotation Xrotation Yrotation
                  JOINT LeftFinger31
                  {
                    OFFSET -0.1927 -3.8059 -0.2383
                    CHANNELS 3 Zrotation Xrotation Yrotation
                    JOINT LeftFinger32
                    {
                      OFFSET -0.1091 -2.1688 -0.1362
                      CHANNELS 3 Zrotation Xrotation Yrotation
                      End Site
                      {
                        OFFSET -0.2358 -1.9176 -0.0906
                      }
                    }
                  }
                }
                JOINT LeftFinger4
                {
                  OFFSET -0.6151 -8.0947 -3.5641
                  CHANNELS 3 Zrotation Xrotation Yrotation
                  JOINT LeftFinger41
                  {
                    OFFSET -0.4882 -2.341 -0.6462
                    CHANNELS 3 Zrotation Xrotation Yrotation
                    JOINT LeftFinger42
                    {
                      OFFSET -0.3575 -1.7167 -0.4742
                      CHANNELS 3 Zrotation Xrotation Yrotation
                      End Site
                      {
                        OFFSET -0.4187 -1.5237 -0.3496
                      }
                    }
                  }
                }
                JOINT LeftFinger0
                {
                  OFFSET -1.42 -1.8761 1.4223
                  CHANNELS 3 Zrotation Xrotation Yrotation
                  JOINT LeftFinger01
                  {
                    OFFSET -1.1471 -3.4929 2.6334
                    CHANNELS 3 Zrotation Xrotation Yrotation
                    JOINT LeftFinger02
                    {
                      OFFSET -0.823 -2.3 1.6571
                      CHANNELS 3 Zrotation Xrotation Yrotation
                      End Site
                      {
                        OFFSET -0.5822 -1.6914 1.1582
                      }
                    }
                  }
                }
              }
            }
          }
        }
        JOINT RightCollar
        {
          OFFSET -2.2603 21.606 7.4023
          CHANNELS 3 Zrotation Xrotation Yrotation
          JOINT RightShoulder
          {
            OFFSET -13.5187 -1.1334 -5.0155
            CHANNELS 3 Zrotation Xrotation Yrotation
            JOINT RightElbow
            {
              OFFSET 0.0994 -28.0499 -0.2431
              CHANNELS 3 Zrotation Xrotation Yrotation
              JOINT RightWrist
              {
                OFFSET -0.0679 -23.3996 -0.1402
                CHANNELS 3 Zrotation Xrotation Yrotation
                JOINT RightFinger1
                {
                  OFFSET -0.7932 -9.0691 2.5189
                  CHANNELS 3 Zrotation Xrotation Yrotation
                  JOINT RightFinger11
                  {
                    OFFSET 0.8272 -3.3923 0.5977
                    CHANNELS 3 Zrotation Xrotation Yrotation
                    JOINT RightFinger12
                    {
                      OFFSET 0.565 -2.3158 0.4082
                      CHANNELS 3 Zrotation Xrotation Yrotation
                      End Site
                      {
                        OFFSET 0.4919 -1.6479 0.2673
                      }
                    }
                  }
                }
                JOINT RightFinger2
                {
                  OFFSET -0.916 -9.2044 0.2193
                  CHANNELS 3 Zrotation Xrotation Yrotation
                  JOINT RightFinger21
                  {
                    OFFSET -0.0117 -4.1944 -0.0248
                    CHANNELS 3 Zrotation Xrotation Yrotation
                    JOINT RightFinger22
                    {
                      OFFSET -0.0071 -2.3249 -0.0142
                      CHANNELS 3 Zrotation Xrotation Yrotation
                      End Site
                      {
                        OFFSET 0.1475 -2.0882 0.0028
                      }
                    }
                  }
                }
                JOINT RightFinger3
                {
                  OFFSET -0.6113 -8.7231 -2.0637
                  CHANNELS 3 Zrotation Xrotation Yrotation
                  JOINT RightFinger31
                  {
                    OFFSET 0.1927 -3.8059 -0.2383
                    CHANNELS 3 Zrotation Xrotation Yrotation
                    JOINT RightFinger32
                    {
                      OFFSET 0.1091 -2.1688 -0.1362
                      CHANNELS 3 Zrotation Xrotation Yrotation
                      End Site
                      {
                        OFFSET 0.2358 -1.9176 -0.0906
                      }
                    }
                  }
                }
                JOINT RightFinger4
                {
                  OFFSET 0.6151 -8.0947 -3.564
                  CHANNELS 3 Zrotation Xrotation Yrotation
                  JOINT RightFinger41
                  {
                    OFFSET 0.4882 -2.341 -0.6462
                    CHANNELS 3 Zrotation Xrotation Yrotation
                    JOINT RightFinger42
                    {
                      OFFSET 0.3574 -1.7166 -0.4742
                      CHANNELS 3 Zrotation Xrotation Yrotation
                      End Site
                      {
                        OFFSET 0.4187 -1.5237 -0.3496
                      }
                    }
                  }
                }
                JOINT RightFinger0
                {
                  OFFSET 1.4199 -1.8761 1.4221
                  CHANNELS 3 Zrotation Xrotation Yrotation
                  JOINT RightFinger01
                  {
                    OFFSET 1.1472 -3.4929 2.6336
                    CHANNELS 3 Zrotation Xrotation Yrotation
                    JOINT RightFinger02
                    {
                      OFFSET 0.8229 -2.3 1.6571
                      CHANNELS 3 Zrotation Xrotation Yrotation
                      End Site
                      {
                        OFFSET 0.5822 -1.6914 1.1582
                      }
                    }
                  }
                }
              }
            }
          }
        }
      }
    }
  }
  JOINT RightHip
  {
    OFFSET -9.412 3.9771 -0.7758
    CHANNELS 3 Zrotation Xrotation Yrotation
    JOINT RightKnee
    {
      OFFSET -0.7531 -40.938 0
      CHANNELS 3 Zrotation Xrotation Yrotation
      JOINT RightAnkle
      {
        OFFSET 0 -40.1986 0
        CHANNELS 3 Zrotation Xrotation Yrotation
        JOINT RightToe
        {
          OFFSET 0 -4.4182 9.239
          CHANNELS 3 Zrotation Xrotation Yrotation
          End Site
          {
            OFFSET 0 0 6.1981
          }
        }
      }
    }
  }
  JOINT LeftHip
  {
    OFFSET 9.4119 3.9773 -0.7758
    CHANNELS 3 Zrotation Xrotation Yrotation
    JOINT LeftKnee
    {
      OFFSET 0.7532 -40.9383 0
      CHANNELS 3 Zrotation Xrotation Yrotation
      JOINT LeftAnkle
      {
        OFFSET 0 -40.1986 0
        CHANNELS 3 Zrotation Xrotation Yrotation
        JOINT LeftToe
        {
          OFFSET 0 -4.4182 9.239
          CHANNELS 3 Zrotation Xrotation Yrotation
          End Site
          {
            OFFSET 0 0 6.1981
          }
        }
      }
    }
  }
}
MOTION
Frames:	5
Frame Time:	0.0333333
-0.00161488 6.43782 114.295 -0.0122375 0.0122375 180 -0.160675 16.7212 -0.132873 -0.299273 33.4428 -0.229976 -0.299272 33.4427 -0.229976 15.5717 -42.9429 10.7471 8.54884 -5.71456 0.947034 35.2565 -47.7871 45.526 15.0057 -32.2367 4.58769 -98.8561 -73.2133 -145.739 15.3895 2.18942 30.9836 2.52986e-007 2.30219e-007 -5.04674e-006 1.19271e-015 -9.54166e-015 9.93923e-015 3.97569e-015 -3.18055e-015 1.98785e-014 2.52986e-007 2.30219e-007 -5.04674e-006 -0.0128244 0.00232574 8.85591e-005 -1.19271e-015 0 2.88238e-015 2.52986e-007 2.30219e-007 -5.04674e-006 -0.0160578 0.00298293 0.00086176 -7.95139e-016 -3.18055e-015 -4.96962e-016 2.52986e-007 2.30219e-007 -5.04674e-006 -0.0125741 0.00310618 0.0028282 -1.12905e-006 2.67869e-006 -9.6078e-006 2.52986e-007 2.30219e-007 -5.04674e-006 1.19271e-015 -9.54166e-015 9.93923e-015 3.97569e-015 -3.18055e-015 1.98785e-014 -4.44587 -21.9563 -14.8549 -3.74212 -34.0757 3.67037 -30.238 -71.5771 -46.7398 10.2628 -14.836 15.2911 -2.98177e-016 3.18055e-015 3.23025e-016 9.93923e-016 6.36111e-015 2.16178e-015 -1.98785e-016 3.18055e-015 7.70291e-016 -2.98177e-016 3.18055e-015 3.23025e-016 0.0129544 0.00232531 -8.37517e-005 -1.39149e-015 -6.36111e-015 -5.36719e-015 -2.98177e-016 3.18055e-015 3.23025e-016 0.0163052 0.0030311 -0.000878717 7.95139e-016 -3.18055e-015 -2.48481e-015 -2.98177e-016 3.18055e-015 3.23025e-016 0.014576 0.00368243 -0.00326497 -5.96354e-016 -6.36111e-015 2.98177e-016 -2.98177e-016 3.18055e-015 3.23025e-016 9.93923e-016 6.36111e-015 2.16178e-015 -1.98785e-016 3.18055e-015 7.70291e-016 -8.85801 -50.5844 -18.0902 -175.932 21.5521 169.383 -7.54798 43.5157 -7.01135 4.18206e-007 5.41195e-008 7.34296e-007 8.84193 -50.565 18.0515 175.954 21.5606 -169.406 7.5394 43.5036 6.99653 -4.60262e-008 -5.03146e-009 -9.41813e-007 
-0.00161488 6.43782 114.295 -0.0122375 0.0122528 180 -0.161596 17.0698 -0.135648 -0.300129 34.14 -0.23501 -0.300127 34.1398 -0.235009 14.6762 -43.0638 10.1366 8.03648 -4.50733 0.805891 38.2574 -49.1314 49.1049 14.9946 -32.226 4.5782 -101.39 -72.9504 -148.208 14.5844 3.43821 31.1672 3.18055e-015 3.18055e-015 -7.95139e-016 1.33413e-006 -2.3991e-006 3.67909e-006 1.63643e-006 -6.07026e-006 -4.82134e-007 3.18055e-015 3.18055e-015 -7.95139e-016 -0.0128149 0.00231841 8.73484e-005 -2.14074e-030 -1.27222e-014 -9.64106e-015 3.18055e-015 3.18055e-015 -7.95139e-016 -0.0160552 0.0029884 0.000864086 -4.77083e-015 3.18055e-015 -1.19271e-015 3.18055e-015 3.18055e-015 -7.95139e-016 -0.012581 0.00311147 0.00282369 -3.97569e-016 3.18055e-015 2.08724e-015 3.18055e-015 3.18055e-015 -7.95139e-016 1.33413e-006 -2.3991e-006 3.67909e-006 1.63643e-006 -6.07026e-006 -4.82134e-007 -5.12558 -24.1523 -18.4237 -3.03143 -33.9918 4.42093 -30.9779 -74.3959 -47.4312 9.34566 -10.5003 13.2287 -2.08724e-015 6.36111e-015 -2.38542e-015 8.94531e-016 0 9.93923e-016 1.269e-031 3.18055e-015 -2.28602e-015 -2.08724e-015 6.36111e-015 -2.38542e-015 0.0129469 0.00230896 -8.20486e-005 -3.97569e-016 -3.18055e-015 4.47266e-016 -2.08724e-015 6.36111e-015 -2.38542e-015 0.0163085 0.00302048 -0.000875534 7.95139e-016 -9.54166e-015 -4.47266e-016 -2.08724e-015 6.36111e-015 -2.38542e-015 0.0145973 0.00367379 -0.00326192 -1.78906e-015 -3.18055e-015 -0 -2.08724e-015 6.36111e-015 -2.38542e-015 8.94531e-016 0 9.93923e-016 1.269e-031 3.18055e-015 -2.28602e-015 -8.85804 -50.5843 -18.0902 -175.932 21.5521 169.383 -7.54797 43.5158 -7.01136 4.60973e-008 -3.76476e-009 9.41782e-007 8.84191 -50.565 18.0514 175.954 21.5605 -169.406 7.53941 43.5035 6.99653 1.16241e-006 4.2091e-006 3.19527e-007 
-0.00161487 6.43782 114.295 -0.0122375 0.0122375 180 -0.162476 17.4201 -0.138418 -0.300868 34.8406 -0.240068 -0.300866 34.8404 -0.240066 13.7769 -43.1777 9.52204 7.52689 -3.29665 0.675537 41.4792 -50.3505 52.9026 14.9835 -32.2154 4.56869 -103.846 -72.6564 -150.598 13.7721 4.68722 31.3693 3.01334e-006 3.6773e-006 4.05941e-006 3.97569e-016 -3.18055e-015 -9.54166e-015 1.89671e-006 -5.48651e-006 -5.49665e-006 3.01334e-006 3.6773e-006 4.05941e-006 -0.0128225 0.0023075 8.02739e-005 -7.95139e-016 0 -1.68967e-015 3.01334e-006 3.6773e-006 4.05941e-006 -0.0160567 0.0029908 0.000851005 5.58448e-006 -2.40209e-006 3.60188e-007 3.01334e-006 3.6773e-006 4.05941e-006 -0.0126005 0.00311433 0.00282979 3.53398e-006 -1.44665e-007 -5.97559e-006 3.01334e-006 3.6773e-006 4.05941e-006 3.97569e-016 -3.18055e-015 -9.54166e-015 1.89671e-006 -5.48651e-006 -5.49665e-006 -5.9698 -26.3073 -22.0902 -2.12396 -33.8835 5.27907 -32.2041 -77.2309 -48.4435 8.59481 -6.12819 11.2557 0 0 -2.08724e-015 1.39149e-015 -3.18055e-015 -4.47266e-015 5.96354e-016 -3.18055e-015 -5.46658e-015 0 0 -2.08724e-015 0.0129418 0.00231366 -9.30869e-005 2.5842e-015 -3.18055e-015 -3.67752e-015 0 0 -2.08724e-015 0.0163234 0.0030379 -0.000872968 5.96354e-016 0 -3.97569e-016 0 0 -2.08724e-015 0.0145582 0.00367202 -0.00325979 2.5842e-015 0 -2.78299e-015 0 0 -2.08724e-015 1.39149e-015 -3.18055e-015 -4.47266e-015 5.96354e-016 -3.18055e-015 -5.46658e-015 -8.85804 -50.5844 -18.0903 -175.932 21.5521 169.383 -7.54798 43.5158 -7.01135 8.36412e-007 -4.16037e-006 1.46859e-006 8.84181 -50.565 18.0514 175.954 21.5605 -169.406 7.5394 43.5034 6.99653 1.3808e-007 -3.70096e-006 2.82544e-006 
-0.00161488 6.43782 114.295 -0.0122375 0.0122375 180 -0.163314 17.7719 -0.141181 -0.301489 35.5442 -0.245149 -0.301487 35.5439 -0.245148 12.874 -43.2847 8.90375 7.01976 -2.08292 0.555907 44.9159 -51.4289 56.9131 14.9724 -32.2047 4.55915 -106.219 -72.3327 -152.905 12.9521 5.93581 31.59 4.77083e-015 3.18055e-015 -9.93923e-015 -2.06088e-006 1.55436e-006 -6.27969e-006 -3.18055e-015 -6.36111e-015 -2.5842e-015 4.77083e-015 3.18055e-015 -9.93923e-015 -0.0127965 0.00232229 8.05012e-005 -4.65009e-006 -1.13591e-005 -3.57193e-006 4.77083e-015 3.18055e-015 -9.93923e-015 -0.0160399 0.00300089 0.000852771 1.59028e-015 0 -3.97569e-016 4.77083e-015 3.18055e-015 -9.93923e-015 -0.0125845 0.0031115 0.00281585 3.18055e-015 -3.18055e-015 -7.95139e-016 4.77083e-015 3.18055e-015 -9.93923e-015 -2.06088e-006 1.55436e-006 -6.27969e-006 -3.18055e-015 -6.36111e-015 -2.5842e-015 -6.98389 -28.4056 -25.8589 -1.47374 -33.7879 5.99457 -33.8186 -80.0705 -50.0569 7.99963 -1.74106 9.35379 -3.97569e-016 -9.54166e-015 -4.96962e-016 1.98785e-016 -3.18055e-015 9.93923e-017 -1.39149e-015 -6.36111e-015 3.37934e-015 -3.97569e-016 -9.54166e-015 -4.96962e-016 0.0129517 0.00232644 -8.78847e-005 -1.39149e-015 0 -8.94531e-016 -3.97569e-016 -9.54166e-015 -4.96962e-016 0.0163641 0.00304581 -0.000875423 -1.49089e-014 0 1.77912e-014 -3.97569e-016 -9.54166e-015 -4.96962e-016 0.0145641 0.00368104 -0.00326071 5.96354e-016 -9.54166e-015 -2.98177e-016 -3.97569e-016 -9.54166e-015 -4.96962e-016 1.98785e-016 -3.18055e-015 9.93923e-017 -1.39149e-015 -6.36111e-015 3.37934e-015 -8.85804 -50.5844 -18.0903 -175.932 21.5521 169.383 -7.54798 43.5158 -7.01135 4.18206e-007 5.55343e-008 7.34296e-007 8.84183 -50.565 18.0514 175.954 21.5605 -169.406 7.53938 43.5035 6.99653 -9.20531e-008 2.42047e-006 -1.88363e-006 
-0.00161488 6.43782 114.295 -0.0122375 0.0122223 180 -0.164108 18.1249 -0.143936 -0.301984 36.2502 -0.250256 -0.301982 36.2499 -0.250255 11.9677 -43.3845 8.28194 6.51477 -0.866579 0.446958 48.5531 -52.3512 61.122 14.9613 -32.194 4.54965 -108.506 -71.9808 -155.126 12.1237 7.18325 31.8297 -7.95139e-016 0 -3.18055e-015 0 0 -3.37934e-015 -2.58584e-006 -1.40121e-006 3.74778e-006 -7.95139e-016 0 -3.18055e-015 -0.0128252 0.00233066 8.08393e-005 -3.97569e-016 -3.18055e-015 -3.37934e-015 -7.95139e-016 0 -3.18055e-015 -0.0160444 0.00299802 0.000856839 -1.19271e-015 0 -2.98177e-015 -7.95139e-016 0 -3.18055e-015 -0.0125968 0.00313103 0.00282662 -2.32855e-006 8.78504e-007 -1.23768e-006 -7.95139e-016 0 -3.18055e-015 0 0 -3.37934e-015 -2.58584e-006 -1.40121e-006 3.74778e-006 -8.17175 -30.4317 -29.7329 -0.991521 -33.7011 6.6173 -36.6266 -82.9062 -53.0029 7.55202 2.64006 7.50606 -2.38542e-015 6.36111e-015 2.68359e-015 5.96354e-016 9.54166e-015 1.49089e-015 -3.97569e-016 1.59028e-014 -0 -2.38542e-015 6.36111e-015 2.68359e-015 0.0129209 0.00231476 -8.82238e-005 -3.57812e-015 -9.54166e-015 -4.96962e-015 -2.38542e-015 6.36111e-015 2.68359e-015 0.0163297 0.00303029 -0.000872748 2.18663e-015 9.54166e-015 3.57812e-015 -2.38542e-015 6.36111e-015 2.68359e-015 0.014569 0.00367609 -0.00325546 1.98785e-015 0 1.98785e-016 -2.38542e-015 6.36111e-015 2.68359e-015 5.96354e-016 9.54166e-015 1.49089e-015 -3.97569e-016 1.59028e-014 -0 -8.85806 -50.5843 -18.0903 -175.932 21.5522 169.383 -7.54799 43.5158 -7.01134 4.60973e-008 -4.47218e-009 9.41782e-007 8.84191 -50.565 18.0514 175.954 21.5606 -169.406 7.5394 43.5035 6.99651 8.82781e-032 6.36111e-015 -7.95139e-016 
